<svg xmlns="http://www.w3.org/2000/svg" viewBox="0 0 32 32">
  <rect width="32" height="32" rx="8" fill="white" stroke="#e2e8f0" stroke-width="1"/>
  <g transform="translate(4, 4)">
    <svg viewBox="0 0 24 24" fill="none" stroke="#0f172a" stroke-width="2" stroke-linecap="round" stroke-linejoin="round">
      <path d="M5 22h14"/>
      <path d="M5 2h14"/>
      <path d="M17 22v-4.172a2 2 0 0 0-.586-1.414L12 12l-4.414 4.414A2 2 0 0 0 7 17.828V22"/>
      <path d="M7 2v4.172a2 2 0 0 0 .586 1.414L12 12l4.414-4.414A2 2 0 0 0 17 6.172V2"/>
      <path d="M12 12v3"/>
      <circle cx="12" cy="18" r="1" fill="#0f172a"/>
    </svg>
  </g>
</svg>